<?xml version="1.0" encoding="UTF-8"?>
<svg id="Layer_1" data-name="Layer 1" xmlns="http://www.w3.org/2000/svg" viewBox="0 0 208.26 232.4">
  <defs>
    <style>
      .cls-1 {
        fill: #ffbc00;
      }

      .cls-1, .cls-2 {
        fill-rule: evenodd;
      }
    </style>
  </defs>
  <path class="cls-2" d="m193.91,76.12v95.78c-.16.08-.23.12-.35.23-.27.16-.55.27-.82.43-.66.39-1.21.74-1.87,1.09-10.71,6.15-21.46,12.39-32.25,18.66-15.39,8.92-30.81,17.8-46.2,26.76l-1.29.78-.12.08v-54.1c-2.45.27-3.78.43-5.06.62-11.45,1.79-21.81-5.69-23.84-17.06-1.87-11.14,5.92-21.58,17.45-23.53,11.06-1.87,21.85,5.8,23.14,17.26.93,8.73.43,17.57.58,26.37.04,1.44,0,2.92,0,5.53,13.4-7.71,25.94-14.92,38.41-22.2.12-2.38.27-4.25.27-6.15.08-15.85.16-31.63,0-47.4-.04-3.82,1.21-6.04,4.52-7.95,7.21-3.82,14.1-8.06,21.19-12.11,1.48-.86,3-1.52,5.06-2.49.27-.12.55-.27.82-.39.12-.04.19-.12.35-.19Z"/>
  <path class="cls-2" d="m142.89,90.03c6.74,7.75,7.09,18.46.82,26.53-5.76,7.32-16.87,9.66-25.47,5.38-8.57-4.32-12.93-14.72-10.17-24.23,1.67-5.57,5.38-9.54,10.28-12.39,5.84-3.39,11.72-6.7,17.53-10.09,1.4-.86,2.73-1.79,5.1-3.35-13.28-7.63-25.55-14.84-38.37-22.24-16.75,9.66-33.65,19.36-51.03,29.37-10.32-6-20.61-11.92-32.21-18.58,26.88-15.5,52.78-30.46,78.76-45.46,1.44-.86,2.88-1.67,4.36-2.49,1.44.82,2.88,1.64,4.32,2.49,26.02,15,51.92,29.88,78.8,45.34-15.62,9.11-30.38,17.72-45.46,26.49,1.17,1.36,1.95,2.3,2.73,3.23Z"/>
  <path class="cls-1" d="m43.4,107.98v44.79c8.26,4.83,16.63,9.7,25.05,14.61,8.3,4.83,16.59,9.58,25.05,14.49v38.06l-.12-.08-1.25-.78v-.39c-15.46-8.92-30.62-17.64-45.69-26.37-10.83-6.27-21.62-12.5-32.29-18.66-.66-.39-1.29-.74-1.95-1.13-.27-.12-.47-.27-.74-.39-.16-.12-.23-.16-.35-.23v-96.17c.12.12.19.16.35.23.27.12.47.31.74.39.66.39,1.29.74,1.95,1.09,14.3,8.18,28.05,16.05,42.07,24.03.62-1.68,1.05-2.73,1.44-3.9,3.97-11.65,16.28-17.37,27.62-12.74,10.67,4.28,15.58,17.1,10.67,27.5-5.18,10.75-18.07,14.96-28.79,9.11-6.31-3.47-12.39-7.13-18.58-10.75-1.52-.86-3.15-1.6-5.18-2.73Z"/>
</svg>